<?xml version="1.0" standalone="no"?>
<!DOCTYPE svg PUBLIC "-//W3C//DTD SVG 20010904//EN"
 "http://www.w3.org/TR/2001/REC-SVG-20010904/DTD/svg10.dtd">
<svg version="1.0" xmlns="http://www.w3.org/2000/svg"
 width="225.000000pt" height="225.000000pt" viewBox="0 0 225.000000 225.000000"
 preserveAspectRatio="xMidYMid meet">

<g transform="translate(0.000000,225.000000) scale(0.100000,-0.100000)"
fill="#000000" stroke="none">
<path d="M553 1619 c-39 -20 -47 -59 -40 -212 12 -250 31 -325 98 -381 48 -40
96 -57 183 -63 l80 -6 -45 -12 c-71 -19 -95 -32 -138 -70 -74 -67 -63 -152 32
-245 155 -151 287 -111 372 113 12 34 26 62 30 62 4 0 18 -28 30 -62 85 -224
219 -265 373 -113 94 92 105 178 31 245 -43 38 -67 51 -138 70 l-45 12 80 6
c164 11 241 80 264 234 18 123 24 348 11 381 -29 70 -124 63 -239 -18 -102
-72 -212 -198 -316 -363 l-51 -83 -55 89 c-107 175 -270 346 -375 397 -51 24
-114 33 -142 19z"/>
</g>
</svg>
