<svg xmlns="http://www.w3.org/2000/svg" xmlns:xlink="http://www.w3.org/1999/xlink" version="1.1" width="256" height="256" viewBox="0 0 256 256" xml:space="preserve">

<defs>
</defs>
<g style="stroke: none; stroke-width: 0; stroke-dasharray: none; stroke-linecap: butt; stroke-linejoin: miter; stroke-miterlimit: 10; fill: none; fill-rule: nonzero; opacity: 1;" transform="translate(1.4065934065934016 1.4065934065934016) scale(2.81 2.81)" >
	<path d="M 30.927 69.379 c -2.293 0 -6.266 -2.044 -8.511 -2.968 c 1.539 3.327 4.906 5.636 8.813 5.636 c 5.36 0 9.705 -4.345 9.705 -9.705 s -4.345 -9.705 -9.705 -9.705 c -1.224 0 -2.396 0.227 -3.474 0.641 c 4.439 1.875 10.359 2.856 10.359 8.915 C 38.113 66.161 34.896 69.379 30.927 69.379 z" style="stroke: none; stroke-width: 1; stroke-dasharray: none; stroke-linecap: butt; stroke-linejoin: miter; stroke-miterlimit: 10; fill: rgb(0,0,0); fill-rule: nonzero; opacity: 1;" transform=" matrix(1 0 0 1 0 0) " stroke-linecap="round" />
	<path d="M 45 0 C 21.288 0 1.874 18.344 0.14 41.613 l 23.523 9.937 c 2.141 -1.504 4.75 -2.387 7.565 -2.387 c 0.296 0 0.588 0.011 0.879 0.03 l 10.726 -15.718 h 0 c 0 -9.533 7.728 -17.261 17.261 -17.261 c 9.533 0 17.261 7.728 17.261 17.261 s -7.728 17.261 -17.261 17.261 c -0.133 0 -0.265 -0.002 -0.397 -0.005 l -15.31 10.887 l -0.001 -0.001 c 0.013 0.24 0.02 0.481 0.02 0.724 c 0 7.279 -5.9 13.179 -13.179 13.179 c -6.474 0 -11.856 -4.667 -12.968 -10.82 L 1.902 57.957 C 7.467 76.492 24.652 90 45 90 c 24.853 0 45 -20.147 45 -45 C 90 20.147 69.853 0 45 0 z" style="stroke: none; stroke-width: 1; stroke-dasharray: none; stroke-linecap: butt; stroke-linejoin: miter; stroke-miterlimit: 10; fill: rgb(0,0,0); fill-rule: nonzero; opacity: 1;" transform=" matrix(1 0 0 1 0 0) " stroke-linecap="round" />
	<path d="M 71.567 33.424 c 0 -6.307 -5.113 -11.42 -11.42 -11.42 c -6.307 0 -11.42 5.113 -11.42 11.42 c 0 6.307 5.113 11.42 11.42 11.42 C 66.454 44.844 71.567 39.731 71.567 33.424 z M 51.424 33.424 c 0 -4.818 3.905 -8.723 8.723 -8.723 c 4.818 0 8.723 3.905 8.723 8.723 c 0 4.818 -3.905 8.723 -8.723 8.723 C 55.329 42.146 51.424 38.241 51.424 33.424 z" style="stroke: none; stroke-width: 1; stroke-dasharray: none; stroke-linecap: butt; stroke-linejoin: miter; stroke-miterlimit: 10; fill: rgb(0,0,0); fill-rule: nonzero; opacity: 1;" transform=" matrix(1 0 0 1 0 0) " stroke-linecap="round" />
</g>
</svg>